<?xml version="1.0" standalone="no"?>
<!DOCTYPE svg PUBLIC "-//W3C//DTD SVG 20010904//EN"
 "http://www.w3.org/TR/2001/REC-SVG-20010904/DTD/svg10.dtd">
<svg version="1.0" xmlns="http://www.w3.org/2000/svg"
 width="1280.000000pt" height="1280.000000pt" viewBox="0 0 1280.000000 1280.000000"
 preserveAspectRatio="xMidYMid meet">
<g transform="translate(0.000000,1280.000000) scale(0.100000,-0.100000)"
fill="#000000" stroke="none">
<path d="M3250 10169 c-348 -52 -675 -252 -872 -534 -114 -164 -182 -342 -217
-573 -14 -94 -16 -4591 -1 -4654 5 -24 14 -74 21 -113 49 -294 212 -553 445
-707 139 -92 283 -144 529 -190 57 -11 728 -13 3585 -13 3320 0 3519 1 3593
18 238 54 409 143 570 296 124 119 222 257 295 416 36 79 114 354 131 460 7
39 16 93 21 120 5 28 16 91 24 140 15 89 42 248 72 415 9 47 20 112 25 145 17
98 27 156 39 220 6 33 15 85 20 115 8 52 32 188 66 380 9 47 19 110 24 140 5
30 14 81 20 113 5 31 15 83 20 115 6 31 15 84 20 117 6 33 14 85 20 115 76
424 61 561 -76 711 -47 50 -64 77 -64 97 0 57 -51 314 -80 406 -51 159 -122
315 -198 434 -40 62 -72 117 -72 122 0 16 -68 139 -118 215 -60 90 -186 222
-282 294 -95 71 -232 142 -349 181 -192 63 -82 60 -2614 60 -1266 0 -2308 4
-2315 8 -7 5 -24 43 -37 85 -65 199 -160 353 -310 502 -188 188 -394 294 -659
340 -73 12 -187 15 -655 14 -311 -1 -591 -5 -621 -10z"/>
</g>
</svg>
